HIERARCHY
ROOT hip
{
  OFFSET -3.22924 82.2357 46.0331
  CHANNELS 6 Xposition Yposition Zposition Zrotation Xrotation Yrotation
  JOINT abdomen
  {
    OFFSET 0 20.6881 -0.73152
    CHANNELS 3 Zrotation Xrotation Yrotation
    JOINT chest
    {
      OFFSET 0 11.7043 -0.48768
      CHANNELS 3 Zrotation Xrotation Yrotation
      JOINT neck
      {
        OFFSET 0 22.1894 -2.19456
        CHANNELS 3 Zrotation Xrotation Yrotation
        JOINT head
        {
          OFFSET -0.24384 7.07133 1.2192
          CHANNELS 3 Zrotation Xrotation Yrotation
          JOINT leftEye
          {
            OFFSET 4.14528 8.04674 8.04672
            CHANNELS 3 Zrotation Xrotation Yrotation
            End Site
            {
              OFFSET 1 0 0
            }
          }
          JOINT rightEye
          {
            OFFSET -3.6576 8.04674 8.04672
            CHANNELS 3 Zrotation Xrotation Yrotation
            End Site
            {
              OFFSET 1 0 0
            }
          }
        }
      }
      JOINT rCollar
      {
        OFFSET -2.68224 19.2634 -4.8768
        CHANNELS 3 Zrotation Xrotation Yrotation
        JOINT rShldr
        {
          OFFSET -8.77824 -1.95073 1.46304
          CHANNELS 3 Zrotation Xrotation Yrotation
          JOINT rForeArm
          {
            OFFSET -28.1742 -1.7115 0.48768
            CHANNELS 3 Zrotation Xrotation Yrotation
            JOINT rHand
            {
              OFFSET -22.5879 0.773209 7.07136
              CHANNELS 3 Zrotation Xrotation Yrotation
              JOINT rThumb1
              {
                OFFSET -1.2192 -0.487915 3.41376
                CHANNELS 3 Zrotation Xrotation Yrotation
                JOINT rThumb2
                {
                  OFFSET -3.37035 -0.52449 3.41376
                  CHANNELS 3 Zrotation Xrotation Yrotation
                  End Site
                  {
                    OFFSET -1.78271 -1.18214 1.43049
                  }
                }
              }
              JOINT rIndex1
              {
                OFFSET -7.75947 0.938293 5.60832
                CHANNELS 3 Zrotation Xrotation Yrotation
                JOINT rIndex2
                {
                  OFFSET -2.54057 -0.884171 1.56538
                  CHANNELS 3 Zrotation Xrotation Yrotation
                  End Site
                  {
                    OFFSET -1.62519 -0.234802 1.16502
                  }
                }
              }
              JOINT rMid1
              {
                OFFSET -8.24714 1.18213 3.41376
                CHANNELS 3 Zrotation Xrotation Yrotation
                JOINT rMid2
                {
                  OFFSET -3.10165 -0.590103 1.0647
                  CHANNELS 3 Zrotation Xrotation Yrotation
                  End Site
                  {
                    OFFSET -2.48547 -0.328903 0.83742
                  }
                }
              }
              JOINT rRing1
              {
                OFFSET -8.82822 0.546677 1.51678
                CHANNELS 3 Zrotation Xrotation Yrotation
                JOINT rRing2
                {
                  OFFSET -2.60934 -0.819778 -0.0198488
                  CHANNELS 3 Zrotation Xrotation Yrotation
                  End Site
                  {
                    OFFSET -2.33842 -0.294052 0.168128
                  }
                }
              }
              JOINT rPinky1
              {
                OFFSET -8.27202 -0.0477905 -0.4584
                CHANNELS 3 Zrotation Xrotation Yrotation
                JOINT rPinky2
                {
                  OFFSET -1.82734 -0.647385 -0.700984
                  CHANNELS 3 Zrotation Xrotation Yrotation
                  End Site
                  {
                    OFFSET -1.69225 -0.51767 -0.607171
                  }
                }
              }
            }
          }
        }
      }
      JOINT lCollar
      {
        OFFSET 2.68224 19.2634 -4.8768
        CHANNELS 3 Zrotation Xrotation Yrotation
        JOINT lShldr
        {
          OFFSET 8.77824 -1.95073 1.46304
          CHANNELS 3 Zrotation Xrotation Yrotation
          JOINT lForeArm
          {
            OFFSET 28.1742 -1.7115 0.48768
            CHANNELS 3 Zrotation Xrotation Yrotation
            JOINT lHand
            {
              OFFSET 22.5879 0.773209 7.07136
              CHANNELS 3 Zrotation Xrotation Yrotation
              JOINT lThumb1
              {
                OFFSET 1.2192 -0.487915 3.41376
                CHANNELS 3 Zrotation Xrotation Yrotation
                JOINT lThumb2
                {
                  OFFSET 3.37035 -0.52449 3.41376
                  CHANNELS 3 Zrotation Xrotation Yrotation
                  End Site
                  {
                    OFFSET 1.78271 -1.18214 1.43049
                  }
                }
              }
              JOINT lIndex1
              {
                OFFSET 7.75947 0.938293 5.60832
                CHANNELS 3 Zrotation Xrotation Yrotation
                JOINT lIndex2
                {
                  OFFSET 2.54057 -0.884171 1.56538
                  CHANNELS 3 Zrotation Xrotation Yrotation
                  End Site
                  {
                    OFFSET 1.62519 -0.234802 1.16502
                  }
                }
              }
              JOINT lMid1
              {
                OFFSET 8.24714 1.18213 3.41376
                CHANNELS 3 Zrotation Xrotation Yrotation
                JOINT lMid2
                {
                  OFFSET 3.10165 -0.590103 1.0647
                  CHANNELS 3 Zrotation Xrotation Yrotation
                  End Site
                  {
                    OFFSET 2.48547 -0.328903 0.83742
                  }
                }
              }
              JOINT lRing1
              {
                OFFSET 8.82822 0.546677 1.51678
                CHANNELS 3 Zrotation Xrotation Yrotation
                JOINT lRing2
                {
                  OFFSET 2.60934 -0.819778 -0.0198488
                  CHANNELS 3 Zrotation Xrotation Yrotation
                  End Site
                  {
                    OFFSET 2.33842 -0.294052 0.168128
                  }
                }
              }
              JOINT lPinky1
              {
                OFFSET 8.27202 -0.0477905 -0.4584
                CHANNELS 3 Zrotation Xrotation Yrotation
                JOINT lPinky2
                {
                  OFFSET 1.82734 -0.647385 -0.700984
                  CHANNELS 3 Zrotation Xrotation Yrotation
                  End Site
                  {
                    OFFSET 1.69225 -0.51767 -0.607171
                  }
                }
              }
            }
          }
        }
      }
    }
  }
  JOINT rButtock
  {
    OFFSET -8.77824 4.35084 1.2192
    CHANNELS 3 Zrotation Xrotation Yrotation
    JOINT rThigh
    {
      OFFSET 0 -1.70687 -2.19456
      CHANNELS 3 Zrotation Xrotation Yrotation
      JOINT rShin
      {
        OFFSET 0 -36.8199 0.73152
        CHANNELS 3 Zrotation Xrotation Yrotation
        JOINT rFoot
        {
          OFFSET 0.73152 -45.1104 -5.12064
          CHANNELS 3 Zrotation Xrotation Yrotation
          End Site
          {
            OFFSET -1.1221 -3.69964 12.103
          }
        }
      }
    }
  }
  JOINT lButtock
  {
    OFFSET 8.77824 4.35084 1.2192
    CHANNELS 3 Zrotation Xrotation Yrotation
    JOINT lThigh
    {
      OFFSET 0 -1.70687 -2.19456
      CHANNELS 3 Zrotation Xrotation Yrotation
      JOINT lShin
      {
        OFFSET 0 -36.8199 0.73152
        CHANNELS 3 Zrotation Xrotation Yrotation
        JOINT lFoot
        {
          OFFSET -0.73152 -45.1104 -5.12064
          CHANNELS 3 Zrotation Xrotation Yrotation
          End Site
          {
            OFFSET 1.1221 -3.69964 12.103
          }
        }
      }
    }
  }
}
MOTION
Frames:	7
Frame Time:	0.00833333
-4.21214 82.5113 45.2475 -3.61878 5.20465 -5.17026 1.23209 -5.57862 3.97496 -3.76628 -8.74956 0.519741 4.57485 3.93332 1.41928 -1.14222 16.9612 2.05204 -0 0 0 -0 0 0 -1.35584e-013 8.95397e-014 -2.01698e-013 -17.2662 50.3971 82.402 -28.2788 -38.5406 81.3458 -2.82838 42.2018 7.32164 1.73019e-009 9.18566e-010 -2.6947e-010 2.97624e-009 1.55564e-009 -5.18059e-010 1.7302e-009 9.18565e-010 -2.69467e-010 7.73091 5.47488 0.417314 1.73019e-009 9.18562e-010 -2.69466e-010 2.90554 0.965183 0.102902 1.73019e-009 9.18562e-010 -2.69466e-010 10.2786 0.731801 0.0259123 1.73018e-009 9.18567e-010 -2.6946e-010 2.22167 -0.733487 -0.20892 -1.35703e-013 8.95399e-014 -2.01914e-013 -75.6642 62.42 2.73111 27.926 -40.7895 -85.347 0.223319 -13.3289 1.90823 -2.56995e-010 -2.00134e-009 -1.04791e-009 -4.35061e-010 -3.48969e-009 -1.81261e-009 -2.56999e-010 -2.00133e-009 -1.0479e-009 -7.73091 5.47488 -0.417314 -2.56992e-010 -2.00132e-009 -1.04791e-009 -2.90554 0.965183 -0.102902 -2.57e-010 -2.00134e-009 -1.04791e-009 -10.2786 0.731801 -0.0259123 -2.56986e-010 -2.00133e-009 -1.04792e-009 -2.22167 -0.733487 0.20892 -2.03217e-016 0 -3.88251e-019 2.61914 -2.07912 22.9299 0.0444225 -0.826211 0.347123 -3.81052 -4.71081 -18.9297 2.03217e-016 0 3.88251e-019 -3.42809 -1.90411 -42.2849 0.0432279 12.9871 0.226659 20.889 -17.9841 58.4493 
-4.21148 82.5166 45.2504 -3.62214 5.20478 -5.08727 1.1995 -5.52991 3.96198 -3.77785 -8.74246 0.515982 4.56622 3.87913 1.46867 -1.0035 17.0795 2.13149 -0 0 0 -0 0 0 -1.61864e-013 1.47897e-013 -2.48183e-013 -17.3864 50.6967 82.7261 -28.2774 -38.5564 81.3719 -2.7339 41.6476 7.17999 2.04366e-009 1.10879e-009 -2.57444e-010 3.51699e-009 1.879e-009 -5.08051e-010 2.04367e-009 1.10879e-009 -2.5744e-010 7.73091 5.47488 0.417314 2.04366e-009 1.10879e-009 -2.5744e-010 2.90554 0.965183 0.102902 2.04366e-009 1.10879e-009 -2.5744e-010 10.2786 0.731801 0.0259123 2.04366e-009 1.10879e-009 -2.57434e-010 2.22167 -0.733487 -0.20892 -1.61967e-013 1.47895e-013 -2.48381e-013 -75.5972 62.4417 2.68505 27.9467 -40.6866 -85.1611 0.209535 -12.9298 1.84897 -1.85948e-010 -3.71216e-009 -1.68256e-009 -3.04692e-010 -6.46442e-009 -2.90817e-009 -1.85948e-010 -3.71216e-009 -1.68255e-009 -7.73091 5.47488 -0.417314 -1.85945e-010 -3.71214e-009 -1.68255e-009 -2.90554 0.965183 -0.102902 -1.85953e-010 -3.71216e-009 -1.68256e-009 -10.2786 0.731801 -0.0259123 -1.85938e-010 -3.71215e-009 -1.68256e-009 -2.22167 -0.733487 0.20892 -2.03217e-016 0 -3.88251e-019 2.60806 -2.07614 22.8995 0.0443991 -0.824031 0.34608 -3.82348 -4.72335 -18.9795 2.03217e-016 0 3.88251e-019 -3.43239 -1.90954 -42.3295 0.0431504 12.9763 0.22401 20.8149 -17.9459 58.4069 
-4.21064 82.5211 45.2506 -3.63037 5.20905 -5.03175 1.17161 -5.4855 3.95161 -3.76361 -8.70394 0.516528 4.61477 3.85636 1.52614 -1.02659 17.064 2.2383 -0 0 0 -0 0 0 -1.21864e-013 1.36853e-013 -2.25001e-013 -17.4759 50.9809 83.0203 -28.2748 -38.5801 81.4132 -2.72314 41.5065 7.15203 1.74088e-009 9.46163e-010 -2.38188e-010 2.99573e-009 1.60328e-009 -4.65951e-010 1.74089e-009 9.46162e-010 -2.38187e-010 7.73091 5.47488 0.417314 1.74088e-009 9.46158e-010 -2.38186e-010 2.90554 0.965183 0.102902 1.74088e-009 9.46157e-010 -2.38184e-010 10.2786 0.731801 0.0259123 1.74087e-009 9.46162e-010 -2.38178e-010 2.22167 -0.733487 -0.20892 -1.21912e-013 1.36848e-013 -2.25171e-013 -75.5645 62.4365 2.68596 27.9646 -40.5969 -84.9982 0.191717 -12.3995 1.77051 -1.08064e-010 -3.03112e-009 -1.33256e-009 -1.72392e-010 -5.27868e-009 -2.3026e-009 -1.08065e-010 -3.03112e-009 -1.33255e-009 -7.73091 5.47488 -0.417314 -1.08061e-010 -3.0311e-009 -1.33256e-009 -2.90554 0.965183 -0.102902 -1.08069e-010 -3.03112e-009 -1.33256e-009 -10.2786 0.731801 -0.0259123 -1.08053e-010 -3.03112e-009 -1.33257e-009 -2.22167 -0.733487 0.20892 -2.03217e-016 0 -3.88251e-019 2.60852 -2.08118 22.8687 0.0444623 -0.820189 0.344044 -3.82927 -4.73329 -19.0004 2.03217e-016 0 3.88251e-019 -3.42195 -1.92618 -42.328 0.0431697 12.9692 0.221323 20.7536 -17.9258 58.3492 
-4.2023 82.5232 45.2502 -3.63874 5.21462 -4.99816 1.14281 -5.44257 3.94091 -3.72882 -8.64437 0.51955 4.70184 3.85049 1.58906 -1.16519 16.97 2.36418 -0 0 0 -0 0 0 -4.12066e-014 8.61779e-014 -1.59298e-013 -17.531 51.2664 83.2722 -28.2701 -38.6207 81.4844 -2.76793 41.6511 7.20081 1.05354e-009 5.65095e-010 -2.09074e-010 1.8119e-009 9.5676e-010 -3.9476e-010 1.05356e-009 5.65094e-010 -2.09076e-010 7.73091 5.47488 0.417314 1.05354e-009 5.65088e-010 -2.09074e-010 2.90554 0.965183 0.102902 1.05355e-009 5.65088e-010 -2.09071e-010 10.2786 0.731801 0.0259123 1.05354e-009 5.6509e-010 -2.09062e-010 2.22167 -0.733487 -0.20892 -4.11736e-014 8.61686e-014 -1.59432e-013 -75.5688 62.4102 2.7386 27.9815 -40.5113 -84.8425 0.172173 -11.7765 1.67882 -1.56787e-011 -9.46179e-010 -3.94782e-010 -2.07741e-011 -1.65069e-009 -6.81416e-010 -1.56842e-011 -9.46169e-010 -3.94775e-010 -7.73091 5.47488 -0.417314 -1.56774e-011 -9.46158e-010 -3.94781e-010 -2.90554 0.965183 -0.102902 -1.56848e-011 -9.4618e-010 -3.94786e-010 -10.2786 0.731801 -0.0259123 -1.56687e-011 -9.46174e-010 -3.94792e-010 -2.22167 -0.733487 0.20892 -2.03217e-016 0 -3.88251e-019 2.61312 -2.09091 22.836 0.0446082 -0.8148 0.341373 -3.82959 -4.74187 -18.9975 2.03217e-016 0 3.88251e-019 -3.4053 -1.9492 -42.2939 0.0432908 12.9656 0.218619 20.7025 -17.9186 58.2822 
-4.19741 82.5265 45.2504 -3.64828 5.22323 -4.98545 1.11843 -5.40495 3.93532 -3.69181 -8.59305 0.52379 4.80134 3.8614 1.64837 -1.33744 16.8502 2.48571 -0 0 0 -0 0 0 4.00202e-014 2.62087e-014 -8.05268e-014 -17.5468 51.5923 83.5248 -28.2666 -38.6518 81.5389 -2.72056 41.3533 7.12693 3.17721e-010 1.51729e-010 -1.64054e-010 5.44735e-010 2.5553e-010 -2.9427e-010 3.17733e-010 1.51727e-010 -1.64061e-010 7.73091 5.47488 0.417314 3.17722e-010 1.51721e-010 -1.64056e-010 2.90554 0.965183 0.102902 3.17729e-010 1.5172e-010 -1.64052e-010 10.2786 0.731801 0.0259123 3.17719e-010 1.5172e-010 -1.64041e-010 2.22167 -0.733487 -0.20892 4.01292e-014 2.61963e-014 -8.06312e-014 -75.6256 62.3792 2.86537 27.9963 -40.4345 -84.7032 0.154801 -11.1695 1.59003 6.76602e-011 1.38043e-009 6.33932e-010 1.14002e-010 2.39819e-009 1.09687e-009 6.765e-011 1.38045e-009 6.33936e-010 -7.73091 5.47488 -0.417314 6.76603e-011 1.38045e-009 6.3393e-010 -2.90554 0.965183 -0.102902 6.76537e-011 1.38043e-009 6.33923e-010 -10.2786 0.731801 -0.0259123 6.76696e-011 1.38043e-009 6.33918e-010 -2.22167 -0.733487 0.20892 -2.03217e-016 0 -3.88251e-019 2.62282 -2.10322 22.8137 0.0447168 -0.810425 0.339014 -3.82739 -4.7477 -18.9851 2.03217e-016 0 3.88251e-019 -3.38534 -1.9715 -42.2541 0.0434511 12.9633 0.216698 20.6712 -17.9195 58.2309 
-4.20597 82.5326 45.2482 -3.66004 5.23664 -4.99257 1.10379 -5.37648 3.94028 -3.67087 -8.57931 0.527992 4.88721 3.889 1.695 -1.4621 16.7573 2.57963 -0 0 0 -0 0 0 8.17283e-014 -1.27154e-014 -1.81391e-014 -17.5214 51.9974 83.8243 -28.2672 -38.6471 81.53 -2.44949 39.8835 6.74448 -1.30528e-010 -1.07795e-010 -9.70833e-011 -2.26534e-010 -1.84294e-010 -1.64276e-010 -1.30517e-010 -1.07799e-010 -9.70928e-011 7.73091 5.47488 0.417314 -1.30527e-010 -1.07804e-010 -9.70864e-011 2.90554 0.965183 0.102902 -1.30517e-010 -1.07805e-010 -9.70817e-011 10.2786 0.731801 0.0259123 -1.30529e-010 -1.07806e-010 -9.70705e-011 2.22167 -0.733487 -0.20892 8.18769e-014 -1.27284e-014 -1.82385e-014 -75.7506 62.3597 3.08873 28.0082 -40.3712 -84.5895 0.142168 -10.6873 1.51985 1.18406e-010 2.78646e-009 1.25674e-009 1.95777e-010 4.84662e-009 2.17371e-009 1.18393e-010 2.78648e-009 1.25674e-009 -7.73091 5.47488 -0.417314 1.18405e-010 2.78648e-009 1.25673e-009 -2.90554 0.965183 -0.102902 1.18399e-010 2.78646e-009 1.25673e-009 -10.2786 0.731801 -0.0259123 1.18415e-010 2.78646e-009 1.25672e-009 -2.22167 -0.733487 0.20892 -2.03217e-016 0 -3.88251e-019 2.63861 -2.11599 22.814 0.0446678 -0.809624 0.337914 -3.82569 -4.74936 -18.9776 2.03217e-016 0 3.88251e-019 -3.365 -1.98593 -42.2356 0.0435876 12.9602 0.216357 20.6691 -17.9238 58.2204 
-4.21937 82.5379 45.2404 -3.6791 5.25814 -5.02309 1.10436 -5.36585 3.95571 -3.65851 -8.61072 0.532211 4.9564 3.94531 1.72732 -1.53041 16.692 2.64298 -0 0 0 -0 0 0 6.35168e-014 -1.75253e-014 2.06969e-014 -17.4362 52.5123 84.1832 -28.2753 -38.5795 81.41 -1.9132 36.5312 5.94129 -1.58089e-010 -1.34759e-010 6.62083e-012 -2.72217e-010 -2.28629e-010 1.68109e-011 -1.58079e-010 -1.34767e-010 6.608e-012 7.73091 5.47488 0.417314 -1.58088e-010 -1.34766e-010 6.61777e-012 2.90554 0.965183 0.102902 -1.58077e-010 -1.34767e-010 6.62075e-012 10.2786 0.731801 0.0259123 -1.5809e-010 -1.34768e-010 6.62951e-012 2.22167 -0.733487 -0.20892 6.36506e-014 -1.75348e-014 2.05653e-014 -75.9802 62.361 3.45389 28.0174 -40.321 -84.4995 0.134036 -10.3659 1.47319 1.28572e-010 2.83287e-009 1.28819e-009 2.12254e-010 4.93198e-009 2.22884e-009 1.2856e-010 2.83289e-009 1.28819e-009 -7.73091 5.47488 -0.417314 1.28571e-010 2.83288e-009 1.28819e-009 -2.90554 0.965183 -0.102902 1.28567e-010 2.83286e-009 1.28818e-009 -10.2786 0.731801 -0.0259123 1.28581e-010 2.83287e-009 1.28817e-009 -2.22167 -0.733487 0.20892 -2.03217e-016 0 -3.88251e-019 2.66834 -2.12918 22.8525 0.0443671 -0.814197 0.338629 -3.82664 -4.74523 -18.9858 2.03217e-016 0 3.88251e-019 -3.33782 -1.99001 -42.247 0.0435567 12.9523 0.217785 20.6949 -17.9246 58.2625 
